<?xml version="1.0" encoding="UTF-8"?>
<svg xmlns="http://www.w3.org/2000/svg" viewBox="0 0 712 106.27">
  <defs>
    <style>.cls-1{fill:#fff;}</style>
  </defs>
  <g id="Layer_2" data-name="Layer 2">
    <g id="Layer_1-2" data-name="Layer 1">
      <path class="cls-1" d="M305.81,59.21V.16H329V4.93c0,4.94,0,9.87,0,14.81,0,1.31.35,1.83,1.73,1.79,3.22-.1,6.83.85,9.55-.34s4.32-4.38,6.36-6.76c3.7-4.32,7.33-8.7,11.06-13A3.69,3.69,0,0,1,360,.11C367.5,0,375,.05,382.57.06a10.15,10.15,0,0,1,1.32.23,24,24,0,0,1-1.41,2.11c-6.78,8.26-13.55,16.53-20.42,24.72-1.08,1.3-.95,2,.07,3.26,7.44,8.87,14.8,17.81,22.18,26.73.47.56.89,1.16,1.58,2.07-1,.1-1.52.2-2.09.2-7.47,0-14.94.06-22.41-.05a4.06,4.06,0,0,1-2.71-1.3c-5.74-6.9-11.35-13.91-17.1-20.81a4.17,4.17,0,0,0-2.7-1.3c-3.2-.16-6.41-.06-9.83-.06V59.21Z"></path>
      <path class="cls-1" d="M134.24,17.1V42.36h7.41c9.86,0,19.73,0,29.6,0h11.16v17h-2.47c-17.75,0-35.49,0-53.23,0a31.4,31.4,0,0,1-7.31-.83A10.37,10.37,0,0,1,111,48q-.17-18.19,0-36.37C111.09,5,115.58.81,122.9.19c1.42-.12,2.86-.15,4.3-.15,15.49,0,31,0,46.42,0h8.83V17.1h-1.6a6.32,6.32,0,0,1-.65,0q-18.51-.06-37,0Z"></path>
      <path class="cls-1" d="M501.76,59.41l-3,0a5.82,5.82,0,0,1-.61,0Z"></path>
      <path class="cls-1" d="M630.31.18V17.09h-2.49c-7.61,0-15.21.06-22.81,0a5.62,5.62,0,0,0-.76,0h-1.39v1.6a5.43,5.43,0,0,0,0,.58c0,1.81,0,3.62,0,5.44,0,10.78,0,21.57.06,32.37,0,1.74-.36,2.39-2.26,2.34-6.3-.11-12.59,0-18.89,0-.61,0-1.22-.06-2.15-.1V56.63c0-9.54,0-19.1,0-28.66,0-2.85,0-5.68,0-8.52V17.1H578.1a5.78,5.78,0,0,0-.87,0c-1.76,0-3.51,0-5.26,0h-.21c-5.7,0-11.41,0-17.13,0h-2.54V.18Z"></path>
      <path class="cls-1" d="M101.68,59.29H81.28V28S70.51,46.07,66.05,53.85c-2.2,3.84-5.3,5.7-9.74,5.57-3.69-.12-7.4-.1-11.1,0-4.29.1-7.28-1.77-9.39-5.44-3.66-6.38-15.26-26.11-15.26-26.11v3.28c0,2.21,0,4.4,0,6.6q0,6.48,0,13v8.71H18.41c-6-.1-12,0-18.41,0V37.74Q0,25.22,0,12.69A22.3,22.3,0,0,1,.22,9.22C1.11,3.78,4.36.56,9.86.24,14.78,0,19.73,0,24.65.21c3.53.13,6.09,2.06,7.84,5.2,5.68,10.17,11.43,20.28,17.16,30.41.33.58.68,1.15,1.19,2,.5-.81.87-1.34,1.2-1.92,5.68-10,11.43-20,17-30A10.3,10.3,0,0,1,78.67.06C82.85.06,87,0,91.21.16c6.38.3,9.93,3.86,10.44,10.17C101.75,11.63,101.68,59.29,101.68,59.29Z"></path>
      <path class="cls-1" d="M261.42,59.42l0,0c-5.07,0-10.15,0-15.22,0A3.57,3.57,0,0,1,243.08,58c-5.4-6.75-10.91-13.39-16.28-20.15a4.65,4.65,0,0,0-4.33-2c-2.86.15-5.73,0-8.9,0V59.39h-6.2c-5.07,0-10.14,0-15.21,0a4.61,4.61,0,0,1-.68,0h-1.23V55q.08-26.56,0-53.15c0-.2,0-.39,0-.55V0h6.27c5.54,0,11.12,0,16.88,0V21.48c4,0,7.65.06,11.31-.06.58,0,1.2-.82,1.66-1.37q7.88-9.23,15.65-18.52A3.65,3.65,0,0,1,245.17,0c3.91,0,7.82,0,11.72,0H269l-1.64,2-.28.36-.11.14c-6.71,8.16-13.4,16.32-20.17,24.4-1.17,1.38-1.14,2.22,0,3.59q8.92,10.65,17.78,21.39L265.5,53c1.22,1.45,2.42,2.91,3.62,4.36a4.83,4.83,0,0,1,.37.49l.06.07,1.21,1.47Z"></path>
      <path class="cls-1" d="M465.1.16V2.64q0,21.36,0,42.76c0,9.32-4.19,13.77-13.62,13.92-11.16.17-22.33.07-33.51.07-4.44,0-8.91.06-13.35,0a28.51,28.51,0,0,1-5.9-.72c-5.28-1.27-8.05-4.5-8.69-9.87a22.92,22.92,0,0,1-.18-2.87c0-12.42,0-24.86,0-37.28,0-2.1,0-4.19,0-6.3V0h2.3c6.3.1,12.61,0,18.91,0,.61,0,1.22.06,2.16.11V42.37h28.61v-2c0-.26,0-.56,0-.9V.16Z"></path>
      <path class="cls-1" d="M389.83,8.61h0V2.31C389.83,4.42,389.83,6.51,389.83,8.61Z"></path>
      <path class="cls-1" d="M413.18,0V.15C412.24.1,411.63,0,411,0c-6.3,0-12.61.06-18.91,0Z"></path>
      <path class="cls-1" d="M547.66.18V17.09h-7.29c-3.8,0-7.6,0-11.4,0h-9V59.41H496.69V57.92a5.72,5.72,0,0,1,0-.6c0-2.85,0-5.7,0-8.54,0-9.62,0-19.26,0-28.87V17.15H469.27V.18Z"></path>
      <path class="cls-1" d="M579.66,19.45V28h0C579.63,25.12,579.65,22.29,579.66,19.45Z"></path>
      <path class="cls-1" d="M712,0v12.9c0,4,0,8-.22,12-.24,5.54-3.44,8.94-8.87,10.12a34,34,0,0,1-7.13.71c-3.33,0-6.65,0-10,0V59.24h-23.3V35.85c-3.45,0-6.92,0-10.39,0a34,34,0,0,1-7.12-.71c-5.43-1.18-8.63-4.58-8.87-10.12-.18-4-.22-8-.22-12,0-1,0-2,0-3.07h0V0h23.33V9.87h0c0,3.1,0,6.2,0,9.29,0,.2,0,.36,0,.52v1.8h1.55c.16,0,.34,0,.53,0,2.86,0,5.72,0,8.6,0h18.79V0Z"></path>
      <path class="cls-1" d="M27.69,99.73v6h-25V73.5H27.09v6H10.15v7h15v5.8h-15v7.45Z"></path>
      <path class="cls-1" d="M77,73.5v32.22H70.91L54.84,86.16v19.56H47.48V73.5h6.17l16,19.56V73.5Z"></path>
      <path class="cls-1" d="M120.3,89.1h6.81v13.07a19.27,19.27,0,0,1-6.08,3,23.4,23.4,0,0,1-7,1.06,18.81,18.81,0,0,1-9-2.14,16,16,0,0,1-6.28-5.94,17.3,17.3,0,0,1,0-17.17,15.81,15.81,0,0,1,6.33-5.93A19.17,19.17,0,0,1,114.22,73a20,20,0,0,1,7.69,1.42,15.27,15.27,0,0,1,5.8,4.14l-4.79,4.42a11.08,11.08,0,0,0-8.33-3.63,11.37,11.37,0,0,0-5.48,1.29,9.31,9.31,0,0,0-3.73,3.63,11.49,11.49,0,0,0,0,10.73,9.53,9.53,0,0,0,3.71,3.66,11,11,0,0,0,5.41,1.31,12.09,12.09,0,0,0,5.8-1.38Z"></path>
      <path class="cls-1" d="M147.87,73.5h7.46v32.22h-7.46Z"></path>
      <path class="cls-1" d="M206.37,73.5v32.22h-6.12L184.19,86.16v19.56h-7.37V73.5H183l16,19.56V73.5Z"></path>
      <path class="cls-1" d="M252.82,99.73v6H227.87V73.5h24.35v6H235.28v7h15v5.8h-15v7.45Z"></path>
      <path class="cls-1" d="M297.56,99.73v6H272.61V73.5H297v6H280v7h15v5.8H280v7.45Z"></path>
      <path class="cls-1" d="M337.88,105.72l-6.22-9H324.8v9h-7.45V73.5h13.94a17.93,17.93,0,0,1,7.44,1.42,10.69,10.69,0,0,1,6.56,10.27,10.5,10.5,0,0,1-6.63,10.17l7.23,10.36ZM336,81a7.88,7.88,0,0,0-5.11-1.45H324.8V90.8h6.08A7.77,7.77,0,0,0,336,89.33,5.81,5.81,0,0,0,336,81Z"></path>
      <path class="cls-1" d="M368.23,105.23a17.17,17.17,0,0,1-5.73-2.69L365,96.93A17.33,17.33,0,0,0,370,99.37a18.58,18.58,0,0,0,5.71.92,9.09,9.09,0,0,0,4.69-1,2.85,2.85,0,0,0,1.52-2.51,2.41,2.41,0,0,0-.9-1.91,6.94,6.94,0,0,0-2.3-1.22c-.94-.3-2.2-.64-3.8-1a51.09,51.09,0,0,1-6-1.75,9.77,9.77,0,0,1-4-2.81A7.5,7.5,0,0,1,363.15,83a9,9,0,0,1,1.51-5.09,10.25,10.25,0,0,1,4.58-3.61A18.74,18.74,0,0,1,376.72,73a24.76,24.76,0,0,1,6,.73,17.73,17.73,0,0,1,5.16,2.12l-2.3,5.66a18,18,0,0,0-8.93-2.53,8.43,8.43,0,0,0-4.63,1,3.11,3.11,0,0,0-1.49,2.67,2.59,2.59,0,0,0,1.72,2.46,26.79,26.79,0,0,0,5.27,1.59,51.88,51.88,0,0,1,6,1.75,9.91,9.91,0,0,1,4,2.76,7.41,7.41,0,0,1,1.68,5.11,8.79,8.79,0,0,1-1.54,5,10.37,10.37,0,0,1-4.63,3.62,18.81,18.81,0,0,1-7.5,1.33A26.39,26.39,0,0,1,368.23,105.23Z"></path>
      <path class="cls-1" d="M456.51,74.92a11.56,11.56,0,0,1,4.86,16.46,10.84,10.84,0,0,1-4.86,4.05,18,18,0,0,1-7.43,1.4h-6.49v8.89h-7.45V73.5h13.94A17.88,17.88,0,0,1,456.51,74.92Zm-2.73,14.39a5.07,5.07,0,0,0,1.75-4.12A5.14,5.14,0,0,0,453.78,81a7.88,7.88,0,0,0-5.11-1.45h-6.08V90.76h6.08A7.82,7.82,0,0,0,453.78,89.31Z"></path>
      <path class="cls-1" d="M512.83,73.5l-13.94,32.22h-7.37L477.62,73.5h8.06l9.8,23,9.94-23Z"></path>
      <path class="cls-1" d="M536.12,79.57H525.81V73.5h28.08v6.07H543.58v26.15h-7.46Z"></path>
      <path class="cls-1" d="M598.63,73.5h7.46V99.64h16.15v6.08H598.63Z"></path>
      <path class="cls-1" d="M644,79.57H633.66V73.5h28.08v6.07H651.43v26.15H644Z"></path>
      <path class="cls-1" d="M679.6,73.5h14.63a20.53,20.53,0,0,1,9.28,2,15,15,0,0,1,6.26,5.64,17.2,17.2,0,0,1,0,16.94,15.1,15.1,0,0,1-6.26,5.64,20.67,20.67,0,0,1-9.28,2H679.6Zm14.26,26.1a10.78,10.78,0,0,0,7.71-2.7,9.48,9.48,0,0,0,2.88-7.29,9.52,9.52,0,0,0-2.88-7.3,10.82,10.82,0,0,0-7.71-2.69h-6.81v20Z"></path>
    </g>
  </g>
</svg>
